<?xml version="1.0" encoding="UTF-8"?>
<!DOCTYPE svg PUBLIC "-//W3C//DTD SVG 1.1//EN" "http://www.w3.org/Graphics/SVG/1.1/DTD/svg11.dtd">
<!-- Creator: CorelDRAW X7 -->
<svg xmlns="http://www.w3.org/2000/svg" xml:space="preserve" width="262.89mm" height="176.53mm" version="1.1" style="shape-rendering:geometricPrecision; text-rendering:geometricPrecision; image-rendering:optimizeQuality; fill-rule:evenodd; clip-rule:evenodd"
viewBox="0 0 26289 17653"
 xmlns:xlink="http://www.w3.org/1999/xlink">
 <defs>
  <style type="text/css">
   <![CDATA[
    .str6 {stroke:#332C2B;stroke-width:141.11}
    .str5 {stroke:#332C2B;stroke-width:105.83}
    .str1 {stroke:#332C2B;stroke-width:70.55}
    .str3 {stroke:#332C2B;stroke-width:70.55}
    .str4 {stroke:#332C2B;stroke-width:70.55}
    .str2 {stroke:#332C2B;stroke-width:52.91}
    .str0 {stroke:#332C2B;stroke-width:17.64}
    .fil28 {fill:none}
    .fil15 {fill:#FEFEFE}
    .fil19 {fill:#FEFEFE}
    .fil20 {fill:#EEEEEF}
    .fil21 {fill:#EEEEEF}
    .fil31 {fill:#DCDDDD}
    .fil36 {fill:#B6B6B7}
    .fil8 {fill:#A1A1A1}
    .fil7 {fill:#8B8B8C}
    .fil0 {fill:#5F5D5D}
    .fil18 {fill:#5F5D5D}
    .fil4 {fill:#474443}
    .fil9 {fill:#474443}
    .fil29 {fill:#332C2B}
    .fil37 {fill:#332C2B}
    .fil30 {fill:#B6B49E}
    .fil1 {fill:#FFF9B1}
    .fil2 {fill:#FFF9B1}
    .fil22 {fill:#FFF582}
    .fil6 {fill:#FBD7A3}
    .fil16 {fill:#FBD7A3}
    .fil32 {fill:#D59961}
    .fil24 {fill:#E61D4C}
    .fil12 {fill:#E62129}
    .fil14 {fill:#E62129}
    .fil34 {fill:#75838A}
    .fil35 {fill:#566892}
    .fil13 {fill:#00A2E9}
    .fil23 {fill:#009B4C}
    .fil33 {fill:#009B4C}
    .fil17 {fill:#008FD7}
    .fil5 {fill:#332C2B;fill-opacity:0.050980}
    .fil10 {fill:#332C2B;fill-opacity:0.070588}
    .fil26 {fill:#FEFEFE;fill-opacity:0.101961}
    .fil11 {fill:#332C2B;fill-opacity:0.101961}
    .fil3 {fill:#332C2B;fill-opacity:0.101961}
    .fil25 {fill:#FEFEFE;fill-opacity:0.200000}
    .fil27 {fill:#332C2B;fill-opacity:0.200000}
   ]]>
  </style>
 </defs>
 <g id="Layer_x0020_3">
  <metadata id="CorelCorpID_0Corel-Layer"/>
  <path class="fil0" d="M18923 6309c0,0 -89,733 -242,1028 -152,296 -647,773 -647,773l12 -240 -355 343 -34 -172 -297 355c0,0 114,-263 -12,-206 -125,57 -96,73 -96,73l-55 -110 1203 -821 356 -1081 167 58z"/>
  <path class="fil0" d="M14200 6334c0,0 90,734 242,1029 153,295 647,772 647,772l-11 -240 354 343 35 -171 297 354c0,0 -114,-263 11,-206 126,58 97,73 97,73l54 -110 -1203 -820 -355 -1082 -168 58z"/>
  <path class="fil1" d="M14269 6132c25,279 71,972 311,1189 240,217 1465,1052 1979,1040 515,-11 1647,-800 1841,-1029 195,-228 366,-1040 366,-1177l-149 -1464 -1095 -984 -3211 404 -42 2021z"/>
  <path class="fil2" d="M18800 5389c-105,-10 286,-389 366,57 80,446 -80,732 -183,823 -103,92 -114,12 -114,12l-260 429 34 -1460 157 139z"/>
  <path class="fil2" d="M14177 5495c106,-10 -286,-389 -366,57 -80,446 80,732 183,823 103,91 114,11 114,11l260 429 -34 -1459 -157 139z"/>
  <path class="fil3" d="M14509 5746c0,0 385,-1188 644,-821 306,433 1663,509 2366,63 703,-446 943,637 943,637 0,0 -216,-1478 -269,-1420 -52,58 -3709,-7 -3650,49 58,56 -35,1479 -34,1492z"/>
  <path class="fil0" d="M18722 5319l-116 1007 -287 -1402 -639 499 320 -766c0,0 -832,404 -1255,426 -422,22 -1477,-83 -1477,-83l202 -358 -621 76 -323 639 -65 977 -255 -988 -224 -11 -121 -60c0,0 -31,-892 316,-1471l121 -202 -288 -202 580 -182 255 -218 -515 -527c0,0 2092,-184 2507,-78 415,105 1215,232 1562,854 347,622 241,413 241,413 0,0 470,259 510,646 39,386 -18,989 -18,989 0,0 -430,5 -410,22z"/>
  <path class="fil4" d="M18617 4691c0,0 98,-291 -420,221 -517,511 -517,511 -517,511l937 -732z"/>
  <path class="fil0" d="M18715 3485c0,0 -46,-194 228,-308 275,-115 286,-138 286,-138l-23 435c0,0 -171,11 -331,11 -160,0 -160,0 -160,0z"/>
  <path class="fil4" d="M18446 4406c0,0 -243,31 -860,214 -618,183 -1247,252 -1532,274 -286,23 -786,106 -786,106 0,0 1080,127 1303,103 223,-24 1135,-344 1135,-344l740 -353z"/>
  <path class="fil4" d="M14227 4794c0,0 192,-117 729,-357 537,-240 1281,-319 1281,-319l-767 524 -1243 152z"/>
  <path class="fil4" d="M16042 3099c0,0 -777,435 -1017,446 -240,12 -1015,-145 -1015,-145l602 364 529 44 901 -709z"/>
  <path class="fil5" d="M13906 5346c-38,53 124,56 185,239 61,183 109,749 109,749l69 -202c0,0 48,933 249,1117 201,184 372,351 827,605 455,254 906,477 1065,492 159,15 159,15 159,15 0,0 -1498,-493 -1855,-1287 -358,-794 -188,-1717 -188,-1717l-620 -11z"/>
  <path class="fil4" d="M18409 3637c0,0 -26,188 -320,251 -294,64 -313,48 -313,48 0,0 438,112 587,-25 149,-137 46,-274 46,-274z"/>
  <path class="fil4" d="M14330 2473c0,0 283,203 592,329 308,126 941,-33 941,-33l-921 330 -612 -626z"/>
  <polygon class="fil4" points="18641,4925 18715,5159 18606,6326 "/>
  <polygon class="fil4" points="14390,5488 14461,6334 14526,5357 "/>
  <path class="fil4" d="M14339 4092c0,0 -218,171 -218,388 0,217 218,-388 218,-388z"/>
  <path class="fil4" d="M18935 4597c114,286 -12,423 -12,423l12 -423z"/>
  <path class="fil6" d="M15342 6943c0,0 80,-68 240,0 160,69 -240,0 -240,0z"/>
  <path class="fil6" d="M17627 6918c0,0 -80,-69 -240,0 -160,69 240,0 240,0z"/>
  <path class="fil7" d="M14330 2473c0,0 381,71 1273,33 893,-39 815,-43 1150,-11 334,33 1275,371 1275,371 0,0 -982,-535 -1581,-506 -599,29 -1477,81 -1477,81l-640 32z"/>
  <path class="fil7" d="M16537 2702c0,0 -154,-48 -934,282 -780,330 -1593,416 -1593,416 0,0 862,-277 932,-301 70,-25 59,-91 195,-70 136,21 158,82 136,21 -22,-62 -275,37 -22,-62 253,-99 253,-99 253,-99l496 -154 537 -33z"/>
  <path class="fil7" d="M17406 3011c0,0 -800,-15 -1532,425 -733,439 -1647,1358 -1647,1358 0,0 865,-1188 1603,-1491 738,-303 1025,-369 1300,-330 276,38 276,38 276,38z"/>
  <path class="fil7" d="M17714 3434c0,0 -916,630 -1454,868 -538,238 -992,698 -992,698 0,0 135,-401 466,-583 331,-181 761,-423 1153,-604 391,-181 827,-379 827,-379z"/>
  <path class="fil8" d="M18640 3662c0,0 264,203 386,582 122,378 86,1054 86,1054 0,0 132,-615 54,-904 -78,-289 -526,-732 -526,-732z"/>
  <path class="fil9" d="M18739 6495c0,0 31,479 -182,802 -214,324 -520,751 -520,751l9 -178 -355 343 -34 -172 -264 315 -45 -166 -125 57 -26 -94c0,0 1070,-574 1203,-821 133,-246 339,-837 339,-837z"/>
  <path class="fil9" d="M14580 7321l473 769 27 -197 354 343 33 -169 272 320 80 -150c0,0 116,16 84,33 -31,18 23,-92 23,-92 0,0 -1484,-815 -1346,-857z"/>
  <path class="fil7" d="M14423 3674c-435,580 -513,1019 -513,1019 0,0 -29,-285 85,-524 114,-238 303,-567 303,-567l125 72z"/>
  <path class="fil8" d="M18181 3240c-329,-110 -671,-61 -671,-61l671 61z"/>
  <path class="fil10" d="M14509 5746c0,0 365,-1306 625,-939 305,433 1804,456 2507,10 703,-446 821,808 821,808 0,0 -216,-1478 -269,-1420 -52,58 -3709,-7 -3650,49 58,56 -35,1479 -34,1492z"/>
  <path class="fil5" d="M18379 5373c0,0 181,676 46,1201 -134,525 -659,1062 -1086,1318 -428,257 -770,469 -770,469 0,0 691,-178 1169,-519 477,-341 645,-360 745,-641 99,-282 273,-950 273,-950l-377 -878z"/>
  <path class="fil3" d="M18568 5812c0,0 101,400 -118,1018 -219,618 -352,627 -933,1062 -581,435 -948,469 -948,469 0,0 691,-178 1169,-519 477,-341 645,-360 745,-641 99,-282 273,-950 273,-950l-188 -439z"/>
  <path class="fil3" d="M18700 5507c0,0 -53,559 168,648 220,89 251,-97 251,-97l-462 562 109 -389 -104 -200 38 -524z"/>
  <path class="fil5" d="M13906 5346c-38,53 124,56 185,239 61,183 109,749 109,749l69 -202c0,0 48,933 249,1117 201,184 372,351 827,605 455,254 906,477 1065,492 159,15 159,15 159,15 0,0 -1792,-584 -2040,-1319 -247,-736 -156,-1685 -156,-1685l-467 -11z"/>
  <path class="fil11" d="M16858 5872c0,0 139,-249 411,-223 272,25 657,173 657,173l-740 -19 -328 69z"/>
  <path class="fil11" d="M16111 5874c0,0 -143,-251 -423,-225 -280,26 -676,173 -676,173l761 -19 338 71z"/>
  <polygon class="fil11" points="16525,7052 16498,6734 16377,6978 "/>
 </g>
 <g id="Layer_x0020_5">
  <metadata id="CorelCorpID_1Corel-Layer"/>
  <path class="fil2" d="M16125 8258l-12 308 -316 73c0,0 106,325 324,418 217,94 446,373 890,43 443,-329 438,-405 478,-462 40,-58 -305,-72 -305,-72l13 -384c0,0 -398,228 -576,199 -177,-29 -496,-123 -496,-123z"/>
  <path class="fil12" d="M17490 8617l108 -5c0,0 -36,122 -112,353 -77,230 -139,235 -178,401 -40,166 -513,402 -529,775 -16,373 -71,403 -188,241 -118,-163 -117,-160 -117,-160 0,0 20,-214 -244,-498 -264,-283 -300,-261 -453,-698 -153,-437 -101,-392 -101,-392l109 -15c0,0 396,715 851,615 455,-101 651,-313 752,-455 101,-141 102,-162 102,-162z"/>
  <path class="fil13" d="M18148 8652c0,0 164,-89 385,66 222,154 305,311 425,637 120,325 396,1334 396,1334l-5476 0c0,0 221,-956 396,-1333 176,-377 210,-505 362,-595 152,-90 153,-133 302,-131 149,2 169,-2 169,-2 0,0 43,-190 181,-195 138,-4 253,-20 322,132 69,151 85,280 167,461 83,182 145,546 453,698 307,153 244,498 244,498l232 252 68 -150c0,0 5,-405 205,-590 199,-185 254,-254 347,-431 92,-176 240,-616 256,-654 16,-37 90,-256 242,-246 151,10 204,-1 248,64 45,64 76,185 76,185z"/>
  <rect class="fil14" x="13548" y="10689" width="6410" height="3837" rx="208" ry="203"/>
  <path class="fil11" d="M16672 11682c500,0 906,406 906,907 0,500 -406,906 -906,906 -501,0 -906,-406 -906,-906 0,-501 405,-907 906,-907z"/>
  <circle class="fil15" cx="16692" cy="12521" r="797"/>
  <rect class="fil16" x="8220" y="14561" width="17218" height="284" rx="1119" ry="1092"/>
  <polygon class="fil17" points="18306,10689 18412,10105 18518,10689 "/>
  <polygon class="fil17" points="14673,10689 14780,10105 14886,10689 "/>
  <polygon class="fil18" points="8776,12874 10254,12901 9882,14530 9112,14556 "/>
  <polygon class="fil19 str0" points="10493,13786 12670,13866 12653,14521 10537,14556 "/>
  <path class="fil15 str0" d="M12237 13229c0,0 -77,258 -654,363 -577,106 -1126,70 -1126,70l36 124c0,0 1158,-34 1475,-154 317,-120 525,-244 525,-244l-256 -159z"/>
  <polygon class="fil20" points="11458,14123 12664,14088 12663,14149 "/>
  <polygon class="fil21" points="10522,14298 11891,14317 10528,14396 "/>
  <polygon class="fil22" points="9926,11255 10201,11387 9900,12895 9725,12873 "/>
  <polygon class="fil22" points="10041,12467 10342,11795 10536,11884 10088,12853 9900,12895 9959,12600 "/>
  <rect class="fil23 str0" x="22475" y="13247" width="2124" height="744"/>
  <path class="fil14 str0" d="M23522 12597l717 -9 36 -168 -151 -27 -88 -469c0,0 -53,-204 -248,-195 -195,9 -204,115 -239,213 -35,97 9,424 9,424l-106 36 70 195z"/>
  <polygon class="fil4" points="10254,12901 9723,12892 9501,13813 9497,14543 9882,14530 "/>
  <path class="fil16" d="M10115 11346l86 41 -301 1508 -87 -11c0,0 199,-1588 251,-1563 51,25 51,25 51,25z"/>
  <polygon class="fil16" points="10439,11840 10088,12853 10537,11883 "/>
  <path class="fil24" d="M23789 11906c0,0 106,-44 142,115 35,160 88,337 88,337l-177 -36 -53 -416z"/>
  <rect class="fil16" x="10481" y="14845" width="12711" height="2793"/>
  <path class="fil3" d="M16618 8348c0,0 86,203 268,277 183,74 424,-6 424,-6 0,0 -122,177 -187,271 -65,93 -306,284 -661,237 -355,-46 -570,-344 -570,-344 0,0 289,513 813,440 524,-73 785,-606 785,-606l-306 -51 13 -384c0,0 -332,188 -579,166 -246,-22 0,0 0,0z"/>
  <path class="fil3" d="M15695 8639c0,0 131,473 365,679 234,206 523,552 542,720 19,168 104,436 104,436 0,0 -48,-530 55,-698 103,-168 178,-75 327,-308 150,-234 181,-233 310,-560 129,-327 200,-296 200,-296l0 0c0,0 -174,667 -341,841 -167,175 -328,296 -386,419 -57,124 -93,482 -93,482l-72 120 -232 -252c0,0 10,-210 -117,-354 -127,-144 -280,-221 -391,-427 -111,-207 -301,-767 -301,-767l30 -35z"/>
  <path class="fil25" d="M18097 8495c0,0 -336,-195 -429,-8 -94,187 -28,354 -122,625 -93,272 -46,412 -308,636 -262,224 -234,290 -234,290 0,0 327,-252 468,-411 140,-159 191,-387 336,-664 145,-278 192,-194 192,-194l150 9c0,0 11,-132 -33,-222l-20 -61z"/>
  <path class="fil11" d="M17941 8772c0,0 -73,43 -218,368 -144,325 -159,354 -159,354 0,0 123,-344 394,-494 271,-149 192,-222 192,-222l0 0 -209 -6z"/>
  <path class="fil11" d="M15165 8763c0,0 119,4 250,275 131,271 121,243 271,411 150,168 309,290 309,290 0,0 -178,-197 -328,-430 -149,-234 -177,-486 -271,-627 -93,-140 -263,-125 -263,-125l-38 191 70 15z"/>
  <path class="fil25" d="M15150 8520c0,0 194,60 246,162 53,103 123,354 197,491 74,136 140,145 336,379 196,234 309,271 374,495 65,225 166,332 166,332 0,0 94,-198 -72,-426 -167,-229 -233,-204 -356,-409 -124,-206 -241,-457 -336,-718 -95,-261 -202,-412 -314,-402l-241 96z"/>
  <path class="fil25" d="M19669 10689l-5918 0c-97,0 -178,69 -198,160 0,-3 1,-6 2,-9 0,3 -1,6 -1,9l0 3280c0,107 89,194 197,194l0 -3236c0,-107 88,-195 196,-195l5807 0 0 0 0 -43c0,-66 -34,-125 -85,-160zm-6121 203l0 0 0 3431 0 0 0 -3431z"/>
  <path class="fil11" d="M13751 14526l6003 0c112,0 203,-91 203,-203l0 -3431c0,-111 -66,-203 -178,-203l-110 0c51,35 85,94 85,160l0 3280c0,107 -88,194 -196,194l-5807 0c-108,0 -197,-87 -197,-194l0 -3280c0,-3 1,-6 1,-9 -5,17 -7,34 -7,52l0 3431c0,112 91,203 203,203z"/>
  <path class="fil26" d="M18916 11295c356,0 645,289 645,645 0,357 -289,646 -645,646 -357,0 -646,-289 -646,-646 0,-356 289,-645 646,-645z"/>
  <path class="fil26" d="M18376 12004c239,0 433,194 433,432 0,239 -194,433 -433,433 -239,0 -432,-194 -432,-433 0,-238 193,-432 432,-432z"/>
  <path class="fil27" d="M25253 14573c0,0 400,118 -261,125 -661,7 -16772,5 -16772,5 0,0 -17,142 142,142 159,0 17026,-34 17026,-34l50 -111 -14 -99 -171 -28z"/>
  <path class="fil11" d="M10481 14845l5488 2793c0,0 7223,193 7223,0 0,-194 0,-2793 0,-2793l-12711 0z"/>
  <path class="fil11" d="M11042 14845l10458 2793c0,0 1692,193 1692,0 0,-194 0,-2793 0,-2793l-12150 0z"/>
  <polygon class="fil27" points="24599,13247 22475,13991 24599,13991 "/>
 </g>
 <g id="Layer_x0020_1">
  <metadata id="CorelCorpID_2Corel-Layer"/>
  <path class="fil28 str1" d="M14269 6132c25,279 71,972 311,1189 240,217 1465,1052 1979,1040 515,-11 1647,-800 1841,-1029 195,-228 366,-1040 366,-1177"/>
  <polyline class="fil28 str1" points="18720,5103 18606,6326 18354,5103 "/>
  <polyline class="fil28 str1" points="18617,4691 17680,5423 18000,4657 "/>
  <path class="fil28 str1" d="M18446 4406c0,0 -1269,674 -1875,697 -606,23 -1303,-103 -1303,-103 0,0 -23,-423 1131,-960 1155,-538 1315,-606 1315,-606"/>
  <path class="fil28 str1" d="M17406 3011c0,0 -801,-195 -1475,228 -675,423 -709,504 -1132,881 -423,377 -572,674 -572,674l1243 -152"/>
  <path class="fil28 str1" d="M16537 2702c0,0 -332,-91 -1052,194 -721,286 -1475,504 -1475,504 0,0 640,525 1029,423"/>
  <path class="fil28 str1" d="M18492 3480c0,0 -58,-503 -915,-858 -857,-354 -1200,-263 -1966,-217 -766,46 -1281,68 -1281,68l612 626"/>
  <path class="fil28 str1" d="M18640 3662c0,0 458,241 526,732 69,492 -34,903 -34,903"/>
  <path class="fil28 str1" d="M18800 5389c-105,-10 286,-389 366,57 80,446 -80,732 -183,823 -103,92 -114,12 -114,12"/>
  <path class="fil28 str1" d="M14195 5485c105,-9 -286,-388 -366,58 -80,446 80,731 183,823 103,91 114,11 114,11"/>
  <polyline class="fil28 str1" points="14862,4758 14526,5357 14480,6409 14206,5346 "/>
  <path class="fil28 str1" d="M18923 6309c0,0 -66,829 -306,1126 -240,298 -583,675 -583,675l12 -240 -355 343 -34 -172 -297 355c0,0 36,-116 -12,-206 -48,-90 -83,143 -125,57"/>
  <path class="fil28 str1" d="M14202 6332c0,0 66,829 306,1127 241,297 584,674 584,674l-12 -240 354 343 35 -171 297 354c0,0 -36,-116 11,-206 48,-90 84,143 126,57"/>
  <path class="fil28 str2" d="M16377 6978c0,0 91,57 137,69 45,11 160,-92 160,-92"/>
  <path class="fil28 str1" d="M16414 7550c0,0 145,67 319,-33"/>
  <path class="fil28 str1" d="M18715 3485c0,0 -46,-194 228,-308 275,-115 286,-138 286,-138l-23 435c0,0 -171,11 -331,11 -160,0 -160,0 -160,0z"/>
  <g id="_237678856">
   <circle class="fil15 str3" cx="15654" cy="6431" r="361"/>
   <circle class="fil29" cx="15683" cy="6489" r="304"/>
   <circle class="fil19" cx="15806" cy="6294" r="152"/>
   <path class="fil28 str2" d="M16051 6110c0,0 -240,-143 -507,-98 -266,46 -396,85 -396,85"/>
   <path class="fil28 str2" d="M15993 6699c0,0 -143,111 -364,91 -221,-19 -364,-104 -364,-104"/>
   <path class="fil29" d="M16111 5824c0,0 -143,-252 -423,-226 -280,26 -676,174 -676,174l761 -20 338 72z"/>
  </g>
  <g id="_401910384">
   <circle class="fil15 str1" cx="17287" cy="6407" r="351"/>
   <circle class="fil29" cx="17315" cy="6463" r="295"/>
   <circle class="fil15" cx="17435" cy="6273" r="148"/>
   <path class="fil28 str2" d="M16905 6100c0,0 234,-139 494,-95 259,44 385,82 385,82"/>
   <path class="fil28 str2" d="M16962 6673c0,0 139,108 354,89 215,-19 355,-101 355,-101"/>
   <path class="fil29" d="M16858 5822c0,0 139,-249 411,-224 272,25 657,173 657,173l-740 -19 -328 70z"/>
  </g>
  <path class="fil28 str1" d="M14311 3582c-491,726 -385,935 -405,1764"/>
 </g>
 <g id="Layer_x0020_4">
  <metadata id="CorelCorpID_3Corel-Layer"/>
  <line class="fil28 str1" x1="16125" y1="8258" x2="16108" y2= "8710" />
  <line class="fil28 str1" x1="17197" y1="8153" x2="17183" y2= "8619" />
  <path class="fil28 str1" d="M15805 8662c0,0 301,593 779,575 478,-17 850,-513 850,-513"/>
  <path class="fil28 str1" d="M16469 10379c0,0 71,-389 -239,-655 -310,-265 -266,-301 -425,-637 -159,-336 -71,-310 -195,-522 -124,-213 -389,-151 -460,-45 -71,107 -53,284 -53,284 0,0 9,-89 150,-9"/>
  <path class="fil28 str1" d="M16778 10354c0,0 -71,-390 239,-655 310,-266 266,-301 425,-637 159,-337 71,-310 195,-523 124,-212 389,-150 460,-44 71,106 53,283 53,283 0,0 -9,-88 -150,-9"/>
  <path class="fil28 str1" d="M18145 8632c0,0 280,-67 546,216 265,283 628,1593 646,1717 17,124 17,124 17,124"/>
  <path class="fil28 str1" d="M15087 8632c0,0 -280,-67 -545,216 -266,283 -629,1593 -646,1717 -18,124 -18,124 -18,124"/>
  <path class="fil28 str1" d="M13554 12920l0 -419m0 -254l0 -1383c0,-112 60,-175 172,-175l3799 0m279 0l1925 0c111,0 203,92 203,203l0 3431c0,112 -92,203 -203,203l-6003 0c-112,0 -172,-120 -172,-232l0 -1374"/>
  <path class="fil28 str1" d="M17454 12288c23,76 35,154 35,233 0,440 -357,797 -797,797 -440,0 -796,-357 -796,-797 0,-440 356,-796 796,-796 245,0 477,112 628,306"/>
  <rect class="fil28 str4" x="8220" y="14561" width="17218" height="284" rx="1119" ry="1092"/>
  <rect class="fil28 str1" x="22475" y="13247" width="2124" height="744"/>
  <line class="fil28 str5" x1="23687" y1="12601" x2="23687" y2= "13247" />
  <line class="fil28 str5" x1="24077" y1="12601" x2="24077" y2= "13247" />
  <path class="fil28 str1" d="M23522 12597l717 -9 36 -168 -151 -27 -88 -469c0,0 -53,-204 -248,-195 -195,9 -204,115 -239,213 -35,97 9,424 9,424l-106 36 70 195z"/>
  <line class="fil28 str1" x1="24630" y1="12349" x2="24957" y2= "12428" />
  <line class="fil28 str1" x1="24559" y1="11933" x2="24966" y2= "11827" />
  <line class="fil28 str1" x1="24338" y1="11543" x2="24648" y2= "11269" />
  <line class="fil28 str1" x1="23869" y1="11154" x2="23948" y2= "10738" />
  <line class="fil28 str1" x1="23231" y1="11304" x2="22966" y2= "11127" />
  <line class="fil28 str1" x1="23019" y1="11942" x2="22576" y2= "11959" />
  <line class="fil28 str1" x1="23161" y1="12464" x2="22833" y2= "12632" />
  <path class="fil28 str6" d="M20080 14323c0,0 549,256 868,-239 318,-496 327,-815 814,-691 487,124 713,226 713,226"/>
  <polygon class="fil28 str1" points="12653,14521 12670,13866 10493,13786 10537,14556 "/>
  <path class="fil28 str1" d="M12493 13388c0,0 -343,287 -1097,345 -754,59 -903,53 -903,53l-36 -124c0,0 1018,9 1372,-132 354,-142 408,-301 408,-301l256 159z"/>
  <polygon class="fil28 str1" points="10254,12901 9882,14530 9112,14556 8776,12874 "/>
  <polyline class="fil28 str1" points="9723,12892 9926,11255 10201,11387 9900,12895 "/>
  <polyline class="fil28 str1" points="10041,12467 10342,11795 10537,11883 10068,12898 "/>
  <line class="fil28 str1" x1="23192" y1="14845" x2="23192" y2= "17638" />
  <line class="fil28 str1" x1="10481" y1="14845" x2="10481" y2= "17638" />
  <path class="fil28 str1" d="M16509 8608c0,0 89,125 135,111 47,-13 192,-119 192,-119"/>
 </g>
 <g id="Layer_x0020_7">
  <metadata id="CorelCorpID_4Corel-Layer"/>
  <path class="fil30" d="M2125 15755l2938 35c0,0 5,1872 -1487,1806 -1491,-66 -1451,-1841 -1451,-1841z"/>
  <polygon class="fil31" points="9259,4856 9029,4847 8923,6564 "/>
  <path class="fil32" d="M3519 15772c0,0 287,-416 104,-785 -184,-370 -184,-370 -184,-370l248 178c0,0 145,-999 159,-1061 14,-62 195,-550 195,-550 0,0 -128,672 -121,920 6,248 19,417 53,545 34,128 125,270 125,270 0,0 33,-57 210,-59 176,-3 353,32 353,32 0,0 -530,158 -580,277 -50,119 -77,321 -68,416 10,95 55,193 55,193l-549 -6z"/>
  <path class="fil33" d="M4732 14821c0,0 -151,-230 159,-425 310,-195 345,-301 345,-301 0,0 80,275 -97,514 -177,239 -407,212 -407,212z"/>
  <path class="fil33" d="M3360 14494c0,0 70,-284 -116,-443 -185,-159 -743,-115 -699,-133 44,-17 53,248 266,478 212,230 549,98 549,98z"/>
  <path class="fil22" d="M3696 12820c0,0 -313,202 -25,394 288,193 339,-207 339,-207l124 41c0,0 -29,411 288,296 318,-116 20,-460 20,-460l51 -47c0,0 187,221 394,-123 207,-345 -401,-226 -401,-226 0,0 401,-60 142,-408 -259,-348 -390,135 -390,135 0,0 -2,-306 -193,-274 -191,32 -350,97 -335,228 16,131 173,201 173,201l-47 23c0,0 -204,-225 -411,40 -207,264 346,303 346,303l-75 84z"/>
  <circle class="fil19" transform="matrix(0.905837 -0.423625 0.423625 0.905837 4141.46 12649.5)" r="274"/>
  <path class="fil34" d="M4068 15778c0,0 172,505 -217,1072 -390,566 -787,639 -787,639 0,0 993,416 1589,-360 596,-775 225,-1371 410,-1339 186,33 -995,-12 -995,-12z"/>
  <polygon class="fil13" points="1273,4241 3318,4303 3079,4072 1264,4568 "/>
  <polygon class="fil13" points="9080,4347 9116,4595 10780,4444 10753,4754 "/>
  <polygon class="fil31" points="3097,4524 3327,4515 3433,6232 "/>
  <polygon class="fil35" points="9514,5214 9824,4825 9983,5259 "/>
  <polygon class="fil35" points="2282,4648 2698,5117 2291,5197 "/>
  <path class="fil35" d="M2260 5289l7825 142c0,0 -1841,-389 -3718,-389 -1876,0 -4107,247 -4107,247z"/>
  <polygon class="fil35" points="5654,5052 5407,4311 7514,4320 7291,5070 "/>
  <polygon class="fil35 str0" points="5495,4312 5611,4143 7257,4152 7416,4320 "/>
  <polygon class="fil9" points="5673,5351 5452,5347 5159,5852 5318,6330 5504,5896 "/>
  <polygon class="fil4" points="7218,5379 7337,5914 7611,6303 7815,5852 7496,5384 "/>
  <path class="fil36" d="M5770 5353c0,0 75,403 688,335 613,-67 587,-312 587,-312l-1275 -23z"/>
  <circle class="fil37 str0" cx="6397" cy="5558" r="171"/>
  <circle class="fil19" cx="6391" cy="5577" r="127"/>
  <polygon class="fil31" points="1264,4772 1512,4692 1495,6471 "/>
  <polygon class="fil31" points="10761,5053 10514,4973 10531,6752 "/>
  <polygon class="fil27" points="5531,4682 6460,4691 7514,4320 7291,5070 5611,5002 "/>
  <path class="fil27" d="M5247 14147c0,0 -102,152 -309,413 -206,261 -206,261 -206,261 0,0 302,33 407,-212 105,-246 108,-462 108,-462z"/>
  <path class="fil27" d="M4584 14879c0,0 -599,64 -740,335 -140,272 -51,561 -51,561l275 3c0,0 -185,-541 70,-665 256,-124 446,-234 446,-234z"/>
  <path class="fil27" d="M4025 13269c0,0 -237,721 -190,1254 47,533 -19,458 37,523 57,65 197,-116 197,-116 0,0 -176,-486 -149,-826 27,-340 105,-835 105,-835z"/>
  <path class="fil27" d="M2584 13977c0,0 26,284 326,349 299,66 336,17 355,103 19,86 52,-64 -19,-243 -71,-179 -162,-212 -162,-212 0,0 279,43 277,281 -1,239 -1,239 -1,239 0,0 -143,79 -291,33l-258 -131 -227 -419z"/>
  <path class="fil27" d="M4586 15795l477 -5c0,0 1,679 -204,1009 -206,330 -690,804 -1095,788 -406,-16 -509,-36 -509,-36 0,0 776,-37 1178,-551 402,-514 153,-1205 153,-1205z"/>
  <path class="fil27" d="M3867 12650c0,0 108,246 267,143 159,-103 188,-350 188,-350 0,0 139,142 89,256 -49,114 -37,173 -153,199 -117,26 -229,48 -297,-42 -68,-90 -94,-206 -94,-206z"/>
  <path class="fil27" d="M4387 11972c0,0 289,73 168,241 -122,169 -225,237 -225,237l185 32c0,0 172,-28 174,-162 2,-134 -61,-240 -61,-240l-241 -108z"/>
  <path class="fil27" d="M4866 12543c0,0 -68,194 -162,259 -22,16 41,-6 0,0 -211,35 -298,-81 -298,-81 0,0 262,244 338,162 28,-30 118,-96 137,-154 32,-96 -15,-188 -15,-186z"/>
  <path class="fil27" d="M4134 13048c0,0 10,186 151,165 140,-21 177,-117 177,-117l-44 -185c0,0 255,226 177,318 -77,92 -344,100 -344,100l-106 -138c0,0 -11,-143 -11,-143z"/>
  <path class="fil27" d="M3584 12931c0,0 23,193 126,186 103,-7 163,-80 163,-80l118 -150c0,0 60,162 -13,254 -72,92 -83,167 -210,107 -127,-60 -248,-157 -220,-241 29,-85 36,-76 36,-76z"/>
  <path class="fil27" d="M3379 12542c0,0 183,145 289,75 105,-70 142,-141 142,-141l50 -95c0,0 79,152 -19,245 -99,93 -174,93 -283,70 -110,-22 -179,-154 -179,-154z"/>
  <path class="fil27" d="M4163 12032c0,0 87,89 -47,187 -133,98 -168,108 -168,108 0,0 166,6 220,-35 53,-42 -5,-260 -5,-260z"/>
  <path class="fil27" d="M2778 5299c0,0 3142,-114 4039,-86 898,28 907,10 907,10l2361 208c0,0 -7438,-134 -7372,-133l65 1z"/>
  <polygon class="fil29" points="7357,5382 7516,5841 7611,6303 7337,5914 7163,5378 "/>
  <path class="fil29" d="M5526 5349l147 2 -169 545 -186 434 3 -481c0,0 241,-500 205,-500z"/>
  <path class="fil27" d="M5770 5353l464 151 334 54 443 -134c0,0 -362,320 -664,272 -302,-48 -577,-343 -577,-343z"/>
 </g>
 <g id="Layer_x0020_6">
  <metadata id="CorelCorpID_5Corel-Layer"/>
  <path class="fil28 str1" d="M2260 5289l7825 142c0,0 -1841,-389 -3718,-389 -1876,0 -4107,247 -4107,247z"/>
  <path class="fil28 str1" d="M2125 15755l2938 35c0,0 71,1806 -1487,1806 -1558,0 -1451,-1841 -1451,-1841z"/>
  <path class="fil28 str1" d="M4023 15680c0,0 -70,-452 115,-567 186,-115 523,-221 523,-221 0,0 -372,-133 -682,97"/>
  <path class="fil28 str1" d="M3581 15644c0,0 133,-371 88,-531 -44,-159 -230,-496 -230,-496l248 178"/>
  <path class="fil28 str1" d="M3678 14945c0,0 71,-726 160,-1168 88,-443 203,-593 203,-593 0,0 -159,743 -115,1168 44,425 144,580 144,580"/>
  <path class="fil28 str1" d="M4732 14821c0,0 -151,-230 159,-425 310,-195 345,-301 345,-301 0,0 80,275 -97,514 -177,239 -407,212 -407,212z"/>
  <path class="fil28 str1" d="M3360 14494c0,0 70,-284 -116,-443 -185,-159 -743,-115 -699,-133 44,-17 53,248 266,478 212,230 549,98 549,98z"/>
  <circle class="fil28 str1" transform="matrix(0.905837 -0.423625 0.423625 0.905837 4141.46 12649.5)" r="274"/>
  <path class="fil28 str1" d="M3883 12370c0,0 -381,-252 -29,-397 353,-145 339,203 339,203"/>
  <path class="fil28 str1" d="M4211 12275c0,0 207,-517 417,-195 209,322 -129,393 -129,393"/>
  <path class="fil28 str1" d="M4486 12488c0,0 542,-132 401,226 -140,357 -394,123 -394,123"/>
  <path class="fil28 str1" d="M4442 12884c0,0 363,422 -20,460 -382,37 -288,-296 -288,-296"/>
  <path class="fil28 str1" d="M3771 12736c0,0 -557,18 -346,-303 211,-321 411,-40 411,-40"/>
  <path class="fil28 str1" d="M4010 13007c0,0 -49,454 -339,207 -290,-246 25,-394 25,-394"/>
  <polygon class="fil28 str2" points="9514,5214 9824,4825 9983,5259 "/>
  <polygon class="fil28 str1" points="2282,4648 2698,5117 2291,5197 "/>
  <polygon class="fil28 str1" points="1273,4241 3318,4303 3079,4072 1264,4568 "/>
  <polygon class="fil28 str1" points="9080,4347 9116,4595 10780,4444 10753,4754 "/>
  <path class="fil28 str1" d="M5611 5002c1,51 -204,-691 -204,-691l2107 9 -195 593"/>
  <polyline class="fil28 str1" points="5495,4312 5611,4143 7257,4152 7416,4320 "/>
  <polyline class="fil28 str1" points="5452,5347 5159,5852 5318,6330 5504,5896 5673,5351 "/>
  <path class="fil28 str1" d="M7496 5384l319 468 -204 451 -274 -389c0,0 -118,-602 -119,-535"/>
  <path class="fil28 str1" d="M5770 5353c0,0 80,339 593,339 513,0 682,-316 682,-316"/>
 </g>
</svg>
