<svg width="650" height="650" viewBox="0 0 650 650" fill="none" xmlns="http://www.w3.org/2000/svg">
<path d="M411.717 210.129C443.012 207.02 469.152 207.572 484.849 212.328C515.956 221.755 533.59 249.919 543.191 280.631C552.764 311.254 553.993 343.372 553.017 358.746C552.015 374.531 550.9 390.313 548.631 403.312C547.498 409.806 546.1 415.461 544.348 419.996C542.576 424.586 540.576 427.669 538.461 429.416C534.729 432.5 532.331 437.378 530.239 442.628C529.163 445.328 528.096 448.329 526.967 451.494C525.83 454.683 524.617 458.079 523.218 461.675C517.652 475.989 509.153 493.456 491.662 511.191C483.149 519.822 467.933 529.332 448.942 538.913C430.058 548.441 407.817 557.856 385.576 566.391C341.046 583.479 296.877 596.904 280.148 600.594C263.498 604.267 251.678 604.443 242.658 602.814C233.697 601.195 227.22 597.746 221.258 593.693C209.649 585.798 202.598 575.115 197.804 560.735C192.574 545.046 183.668 533.043 173.248 518.654C169.342 513.259 164.37 503.022 159.659 492.07C155.09 481.451 150.923 470.533 148.427 463.573C146.565 447.999 145.143 421.621 146.914 392.782C148.706 363.624 153.745 332.278 164.678 307.093C167.835 299.821 173.998 292.422 182.86 285.072C191.693 277.745 203.003 270.633 216.15 263.878C242.444 250.368 275.719 238.473 310.297 229.175C344.86 219.882 380.582 213.222 411.717 210.129Z" fill="#EEDCD0" stroke="black" stroke-width="8"/>
<path d="M155.009 507.5L154.009 438L137.009 447C137.676 452.5 138.704 467.225 142.009 479.5C145.509 492.5 148.009 498.5 155.009 507.5Z" fill="#111111" stroke="black" stroke-width="4"/>
<path d="M248.389 93.2548C302.831 73.2556 350.344 71.9486 390.802 83.0605C431.284 94.1789 464.989 117.81 491.652 148.141C545.09 208.927 569.877 296.214 564.025 361.643C558.161 427.222 532.168 473.989 508.004 503.794C495.914 518.705 484.291 529.359 475.898 535.977C473.958 537.506 472.199 538.81 470.656 539.899C470.793 538.333 470.884 536.734 470.943 535.219C471.04 532.737 471.056 530.41 471.048 528.708C471.046 528.314 471.039 527.953 471.035 527.63C482.985 515.689 506.443 491.987 512.914 462.868C516.14 448.353 517.835 437.532 518.638 429.866C519.159 424.886 519.32 421.079 519.234 418.404C522.601 416.695 526.854 414.206 530.904 411.179C535.977 407.387 541.277 402.355 543.701 396.538C546.275 390.361 547.654 385.768 548.281 381.378C548.905 377.013 548.754 373.035 548.504 368.29C548.226 363.006 546.833 358.121 544.656 354.368C542.567 350.766 539.272 347.456 534.907 347.019C532.4 346.769 528.775 346.515 525.415 347.842C521.677 349.317 518.897 352.458 517.629 357.53C517.149 359.45 516.514 361.657 515.804 364.143C515.101 366.602 514.335 369.297 513.631 372.082C512.233 377.611 511.009 383.746 511.009 389.5C511.009 391.384 510.778 393.743 510.421 396.251C509.121 391.011 507.822 385.19 506.958 379.859C504.538 364.935 501.88 355.907 500.723 353.015C500.037 351.3 498.268 350.278 496.44 350.541C494.727 350.787 493.38 352.102 493.074 353.78L493.027 354.121C492.709 357.46 491.366 367.822 488.587 381.716C486.997 389.667 483.648 397.698 480.629 403.799C478.337 393.322 475.472 380.081 472.48 367.184C468.395 349.568 463.96 332.063 460.234 322.543C452.945 303.914 438.05 274.472 431.548 262.135C430.732 260.587 429.005 259.749 427.284 260.066C425.564 260.383 424.249 261.782 424.038 263.518C422.102 279.487 411.59 321.546 385.218 359.727C351.844 408.044 324.997 437.356 316.681 445.672C311.953 450.399 303.653 458.206 296.991 464.402C298.338 437.918 300.739 394.739 302.489 376.891C304.506 356.316 303.384 343.704 302.4 339.573C302.009 337.931 300.629 336.711 298.951 336.524C297.379 336.349 295.862 337.118 295.066 338.463L294.917 338.74C278.543 372.156 243.459 442.946 233.551 459.989C224.507 475.544 198.061 519.135 182.514 544.662C176.658 526.427 168.998 494.469 170.998 467.799C173.388 435.928 177.293 416.91 178.847 411.629C179.38 409.817 178.572 407.879 176.911 406.981C175.25 406.083 173.187 406.469 171.963 407.907C165.206 415.847 149.506 436.332 140.884 454.809C136.467 464.273 132.601 479.309 129.567 493.937C127.741 502.743 126.189 511.545 124.983 519.142C100.359 463.493 79.4328 380.186 87.9238 300.298C97.0256 214.663 139.844 133.128 248.389 93.2548Z" fill="#111111" stroke="black" stroke-width="8" stroke-linejoin="round"/>
<path d="M446.509 43L443.009 89.5L460.509 65L446.509 43Z" fill="#111111" stroke="black" stroke-width="4" stroke-linejoin="round"/>
<mask id="path-5-inside-1_2_46" fill="white">
<path fill-rule="evenodd" clip-rule="evenodd" d="M354.523 436.039C354.18 437.807 354 439.632 354 441.5C354 457.24 366.76 470 382.5 470C398.24 470 411 457.24 411 441.5C411 430.426 404.685 420.828 395.459 416.11L354.523 436.039Z"/>
</mask>
<path fill-rule="evenodd" clip-rule="evenodd" d="M354.523 436.039C354.18 437.807 354 439.632 354 441.5C354 457.24 366.76 470 382.5 470C398.24 470 411 457.24 411 441.5C411 430.426 404.685 420.828 395.459 416.11L354.523 436.039Z" fill="#111111"/>
<path d="M354.523 436.039L352.772 432.443L350.976 433.317L350.596 435.277L354.523 436.039ZM395.459 416.11L397.28 412.548L395.503 411.639L393.708 412.513L395.459 416.11ZM358 441.5C358 439.889 358.155 438.319 358.449 436.801L350.596 435.277C350.204 437.294 350 439.375 350 441.5H358ZM382.5 466C368.969 466 358 455.031 358 441.5H350C350 459.449 364.551 474 382.5 474V466ZM407 441.5C407 455.031 396.031 466 382.5 466V474C400.449 474 415 459.449 415 441.5H407ZM393.638 419.671C401.578 423.732 407 431.986 407 441.5H415C415 428.866 407.791 417.924 397.28 412.548L393.638 419.671ZM393.708 412.513L352.772 432.443L356.273 439.636L397.21 419.706L393.708 412.513Z" fill="black" mask="url(#path-5-inside-1_2_46)"/>
<line x1="334.292" y1="448.959" x2="392.959" y2="418.708" stroke="black" stroke-width="6" stroke-linecap="round"/>
<path d="M302.152 405.655C302.152 405.655 312.071 390.352 354.571 378.852C397.071 367.352 414.374 374.271 414.374 374.271" stroke="black" stroke-width="6" stroke-linecap="round"/>
<line x1="388.127" y1="438.646" x2="393.655" y2="435.882" stroke="white" stroke-width="5" stroke-linecap="round"/>
<mask id="path-10-inside-2_2_46" fill="white">
<path fill-rule="evenodd" clip-rule="evenodd" d="M229.214 492.676C229.073 493.765 229 494.874 229 496C229 510.359 240.864 522 255.5 522C270.136 522 282 510.359 282 496C282 486.357 276.65 477.941 268.703 473.452L229.214 492.676Z"/>
</mask>
<path fill-rule="evenodd" clip-rule="evenodd" d="M229.214 492.676C229.073 493.765 229 494.874 229 496C229 510.359 240.864 522 255.5 522C270.136 522 282 510.359 282 496C282 486.357 276.65 477.941 268.703 473.452L229.214 492.676Z" fill="#111111"/>
<path d="M229.214 492.676L227.464 489.08L225.526 490.023L225.248 492.16L229.214 492.676ZM268.703 473.452L270.67 469.969L268.841 468.936L266.952 469.855L268.703 473.452ZM233 496C233 495.047 233.062 494.11 233.181 493.192L225.248 492.16C225.084 493.419 225 494.701 225 496H233ZM255.5 518C243.001 518 233 508.079 233 496H225C225 512.64 238.727 526 255.5 526V518ZM278 496C278 508.079 267.999 518 255.5 518V526C272.273 526 286 512.64 286 496H278ZM266.736 476.934C273.501 480.756 278 487.884 278 496H286C286 484.831 279.798 475.125 270.67 469.969L266.736 476.934ZM266.952 469.855L227.464 489.08L230.965 496.273L270.454 477.048L266.952 469.855Z" fill="black" mask="url(#path-10-inside-2_2_46)"/>
<path d="M174 489.5C174 489.5 168.5 473.5 191.5 450C214.5 426.5 252 426.5 252 426.5" stroke="black" stroke-width="6" stroke-linecap="round"/>
<line x1="207.391" y1="503.992" x2="267.992" y2="474.609" stroke="black" stroke-width="6" stroke-linecap="round"/>
<line x1="263.127" y1="495.133" x2="268.655" y2="492.369" stroke="white" stroke-width="5" stroke-linecap="round"/>
<path d="M324 541C353.751 531.274 350.993 530.342 349 528" stroke="black" stroke-width="5" stroke-linecap="round"/>
</svg>
